<svg xmlns="http://www.w3.org/2000/svg" data-name="Layer 1" viewBox="0 0 100 100" x="0px" y="0px" style="fill: #888;"><title>a</title><path d="M67.84875,71.78271a2.96258,2.96258,0,0,0,4.38331-.23516,33.89713,33.89713,0,0,0,.00006-43.095,2.96262,2.96262,0,0,0-4.38343-.23529l-.00006.00006a2.97181,2.97181,0,0,0-.14587,4.00726,28.003,28.003,0,0,1,.0003,35.55072A2.97171,2.97171,0,0,0,67.84875,71.78271Z"/><path d="M77.95129,81.88324a2.93385,2.93385,0,0,0,4.26673-.09845A48.14034,48.14034,0,0,0,82.22723,18.218a2.93388,2.93388,0,0,0-4.266-.10565l-.00683.00677a2.94682,2.94682,0,0,0-.11432,4.03674,42.24322,42.24322,0,0,1-.0033,55.68421,2.94693,2.94693,0,0,0,.10761,4.03619Z"/><path d="M56.4975,5.43231,26.9939,26.33661H9.30542a3.51164,3.51164,0,0,0-3.51166,3.51166V70.15179A3.51151,3.51151,0,0,0,9.3053,73.66333H26.9939l29.5036,20.9043A2.32693,2.32693,0,0,0,60.16968,92.669V7.331A2.327,2.327,0,0,0,56.4975,5.43231Z"/></svg>